<?xml version="1.0" encoding="UTF-8" standalone="no"?>
<!-- Created with Inkscape (http://www.inkscape.org/) -->

<svg
   width="67.733337mm"
   height="47.624989mm"
   viewBox="0 0 67.733338 47.62499"
   version="1.1"
   id="svg1"
   xml:space="preserve"
   xmlns="http://www.w3.org/2000/svg"
   xmlns:svg="http://www.w3.org/2000/svg"><defs
     id="defs1" /><g
     id="layer1"
     transform="translate(-23.829595,-141.31259)"><path
       id="rect1"
       style="fill:#3d7af5;fill-opacity:1;stroke:none;stroke-width:0.999996;stroke-dasharray:none;stroke-dashoffset:0;stroke-opacity:1;paint-order:stroke fill markers"
       d="m 64.998563,141.31259 c -0.10794,0 -0.828546,0.19187 -1.601184,0.42637 -3.052728,0.92651 -6.153278,1.39609 -9.247749,1.40027 -3.072534,0.004 -5.419344,-0.33817 -8.231147,-1.20053 -0.742863,-0.22783 -1.400155,-0.41438 -1.460629,-0.41438 -0.09275,0 -1.474498,1.19668 -4.693635,4.06454 l -0.607146,0.54071 0.374886,1.21747 c 0.457393,1.48548 0.958595,3.86103 1.097127,5.20011 0.428947,4.14629 0.112907,7.43747 -1.218846,12.69148 -0.602937,2.3787 -0.640262,3.85954 -0.135796,5.39924 1.150393,3.51113 4.095063,5.88901 11.27164,9.1017 1.915333,0.85743 3.380976,1.66154 3.757351,2.06173 0.139819,0.14866 0.29681,0.27025 0.349009,0.27025 0.0522,0 0.294334,-0.13669 0.538007,-0.30375 0.682154,-0.46768 1.965899,-1.08358 4.106572,-1.97054 6.081754,-2.51989 8.75652,-4.43892 10.194384,-7.31333 0.666099,-1.3316 1.033162,-2.76531 1.033162,-4.03578 0,-0.36779 0.04146,-0.6687 0.09212,-0.6687 0.135051,0 2.696312,1.06057 2.831828,1.1726 0.06343,0.0524 0.165696,0.27453 0.227089,0.49356 0.956291,3.41208 1.665233,5.83896 1.696614,5.80762 0.02159,-0.0216 -0.01522,-0.54417 -0.08177,-1.16144 -0.152777,-1.4174 -0.07805,-1.71262 0.101435,-0.40072 0.07407,0.54146 0.156041,0.96319 0.182163,0.93709 0.05349,-0.0534 -0.271493,-6.34595 -0.330794,-6.40519 -0.0383,-0.0383 -2.687,-0.61562 -3.984228,-0.86844 l -0.696572,-0.13563 -0.127308,-0.88024 c -0.07007,-0.4841 -0.3178,-1.64726 -0.550428,-2.58486 -0.424438,-1.71068 -0.82221,-3.65827 -1.070008,-5.23775 -0.208189,-1.32695 -0.177982,-6.11245 0.04616,-7.30485 0.269834,-1.43551 0.664064,-2.81662 1.119487,-3.92144 l 0.40904,-0.9923 -2.597294,-2.49244 c -1.481102,-1.42127 -2.681623,-2.49243 -2.793537,-2.49243 z m -0.04823,0.54587 2.177695,2.0969 c 2.915005,2.80699 2.620791,2.39891 2.305623,3.19958 -0.621138,1.578 -0.972815,2.92519 -1.25238,4.79732 -0.170586,1.14237 -0.147421,5.02189 0.0381,6.37852 l 0.148422,1.08515 h -0.232051 c -0.127565,0 -1.074779,0.35729 -2.105038,0.794 -1.030258,0.4367 -1.922857,0.794 -1.983521,0.794 -0.06067,0 -0.848067,-1.51257 -1.749815,-3.36129 -2.497377,-5.11996 -2.495486,-5.11624 -2.848393,-5.33431 -0.830525,-0.51318 -1.340191,-0.10617 -2.006915,1.60248 l -0.475075,1.21748 -0.613772,-0.0493 c -0.828623,-0.0666 -2.237492,-0.0687 -2.62524,-0.004 -0.362775,0.0608 -0.395198,0.0183 -1.730357,-2.2716 l -0.774406,-1.3279 -1.23934,0.002 c -0.681709,8e-4 -1.290141,0.0367 -1.351951,0.0794 -0.06181,0.0428 -0.343422,0.40383 -0.625777,0.80229 l -0.513372,0.72432 0.233501,0.47992 c 0.226736,0.46616 0.244946,0.47829 0.640267,0.42532 0.398961,-0.0534 0.408153,-0.0471 0.469488,0.33042 0.06754,0.41575 0.06437,0.42135 -1.259212,2.29125 -0.329722,0.46582 -0.774238,1.10611 -0.987829,1.4228 -0.385811,0.57204 -0.405048,0.58397 -2.95769,1.82622 -1.413185,0.68772 -2.593612,1.25034 -2.62317,1.25034 -0.02956,0 -0.05216,-0.10719 -0.0501,-0.2382 0.0021,-0.131 0.07308,-0.66696 0.157739,-1.191 0.229323,-1.41949 0.315845,-4.82894 0.162499,-6.40498 -0.173002,-1.77806 -0.554208,-3.78906 -1.050759,-5.5444 l -0.40987,-1.44905 2.33771,-2.07021 c 1.9866,-1.75932 2.378495,-2.06291 2.608679,-2.02099 0.148976,0.0272 0.676163,0.17567 1.171649,0.33021 5.497083,1.71459 11.452386,1.59957 17.959771,-0.34716 z m -33.161817,4.4299 c -0.392348,0 -1.001054,0.0744 -1.352779,0.16542 -0.353746,0.0916 -0.928912,0.15069 -1.287159,0.13233 l -0.647719,-0.0331 0.01304,0.31988 c 0.01095,0.26947 -0.04756,0.34825 -0.370953,0.49936 -0.211173,0.0987 -0.455536,0.22353 -0.542974,0.27748 -0.08744,0.0539 -0.28824,0.14894 -0.446304,0.21111 -0.263601,0.1037 -0.2784,0.1392 -0.177817,0.4274 0.08427,0.24147 1.496039,1.64894 2.346404,2.33943 0.04365,0.0355 -0.03972,0.6815 -0.185063,1.43561 -0.145342,0.75412 -0.264442,1.39258 -0.26476,1.41888 -6.81e-4,0.0564 -1.342505,-1.95335 -1.49851,-2.24452 -0.05891,-0.10994 -0.124379,-0.60859 -0.145525,-1.10829 -0.03606,-0.85209 -0.120004,-1.08122 -0.398071,-1.08679 -0.110388,-0.002 -1.350867,1.23285 -1.346776,1.34092 0.0038,0.10131 0.820797,0.71618 1.064835,0.80144 0.09193,0.0322 0.60819,0.71822 1.14743,1.52454 l 0.980583,1.466 -0.06748,0.88065 c -0.108839,1.42347 -0.149556,1.45785 -0.720792,0.60728 -0.451345,-0.67203 -0.482221,-0.76077 -0.426845,-1.2278 0.03283,-0.27689 0.0261,-0.81782 -0.01511,-1.20217 -0.06822,-0.63627 -0.09669,-0.69889 -0.31796,-0.69889 -0.154663,0 -0.410434,0.18284 -0.703403,0.50287 -0.2532,0.27658 -0.593296,0.58544 -0.755569,0.68648 -0.162273,0.10104 -0.293795,0.24396 -0.292292,0.3176 0.0024,0.11957 0.402012,0.41727 1.30227,0.97017 0.163894,0.10066 0.537175,0.54908 0.82947,0.99665 0.292295,0.44757 0.596685,0.88613 0.676493,0.97451 0.116783,0.12934 0.132669,0.53853 0.08135,2.09688 -0.05008,1.52081 -0.09121,1.90661 -0.191687,1.79789 -0.07036,-0.0761 -0.396792,-0.52886 -0.725346,-1.00615 -0.595055,-0.86446 -0.597346,-0.87103 -0.609838,-1.69389 -0.01578,-1.03948 -0.10259,-1.44991 -0.315268,-1.49082 -0.23068,-0.0444 -1.827274,1.53212 -1.751471,1.72944 0.07888,0.20533 0.940811,0.80333 1.440963,0.99975 0.554146,0.21762 2.194324,2.46687 2.273745,3.11812 0.206774,1.69555 0.311603,2.3166 0.497433,2.94939 0.116499,0.39672 0.196784,0.78657 0.178646,0.86619 -0.02481,0.10888 -0.409558,0.008 -1.552953,-0.40859 l -1.519832,-0.55312 -0.305126,-0.78304 c -0.167763,-0.4307 -0.404896,-0.88113 -0.527035,-1.00098 l -0.222117,-0.21795 -0.25503,0.31554 c -0.140279,0.17352 -0.283751,0.44587 -0.318788,0.60522 -0.03504,0.15934 -0.184787,0.46791 -0.332865,0.68586 -0.186092,0.27392 -0.23957,0.44353 -0.172849,0.54919 0.137749,0.21812 0.941402,0.43437 1.623128,0.4367 0.432012,0.002 1.004392,0.15101 2.210815,0.57773 0.895324,0.31669 1.637254,0.59041 1.648797,0.60832 0.01154,0.0179 0.155235,0.38998 0.319201,0.82667 0.163968,0.43671 0.603774,1.3776 0.977272,2.09089 0.373498,0.71328 0.649397,1.29687 0.61315,1.29687 -0.160952,0 -3.08029,-0.98987 -3.199059,-1.08472 -0.07287,-0.0582 -0.132483,-0.19625 -0.132483,-0.30685 0,-0.31993 -0.605875,-1.56799 -0.796763,-1.64116 -0.236768,-0.0908 -0.420307,0.12327 -0.684566,0.79855 -0.122994,0.3143 -0.317267,0.69038 -0.431606,0.83558 -0.153858,0.19538 -0.178031,0.29981 -0.09315,0.40196 0.159646,0.19215 0.993142,0.44369 1.688127,0.50949 0.320609,0.0304 1.392649,0.33095 2.382216,0.66807 l 1.799082,0.61309 0.4728,0.6352 c 0.259978,0.34937 0.949756,1.22649 1.532873,1.94924 0.998018,1.23703 1.041126,1.31033 0.735696,1.24932 -0.178454,-0.0357 -1.038463,-0.12251 -1.911278,-0.19292 l -1.586902,-0.12799 -0.284218,-0.44869 c -0.332346,-0.52474 -1.161434,-1.31735 -1.377827,-1.31735 -0.202127,0 -0.278629,0.234 -0.278629,0.85191 0,0.28434 -0.0738,0.73388 -0.163948,0.99912 -0.231307,0.68053 -0.165033,0.73362 0.788483,0.6325 1.169015,-0.12393 2.407445,-0.11275 4.080279,0.0367 l 1.472221,0.1313 1.483606,1.43437 c 0.81598,0.78883 1.735851,1.6202 2.044176,1.84772 0.736995,0.54384 0.815862,0.67745 0.352737,0.59675 -0.197877,-0.0345 -1.409044,-0.13879 -2.691481,-0.23199 -3.150082,-0.22896 -2.954527,-0.1857 -3.27151,-0.72599 -0.333602,-0.56861 -1.08275,-1.25578 -1.319658,-1.21045 -0.131701,0.0252 -0.199091,0.1994 -0.25855,0.66809 -0.04423,0.34866 -0.125503,0.82452 -0.180508,1.05743 -0.139583,0.59104 0.05443,0.73278 0.843753,0.6166 0.716182,-0.10541 1.673397,-0.0781 4.345453,0.12365 1.136705,0.0858 2.448292,0.18367 2.914633,0.21731 0.831593,0.06 0.8754,0.0775 2.278713,0.91972 0.78695,0.47228 1.596928,0.96967 1.79991,1.10521 0.379018,0.25306 0.790911,0.32146 0.897575,0.14908 0.09744,-0.15749 -0.16303,-0.35411 -1.919146,-1.44969 -2.56823,-1.60222 -4.275899,-2.87292 -4.275899,-3.1816 0,-0.0849 0.114959,-0.56829 0.255445,-1.07418 0.140485,-0.50588 0.335492,-1.23048 0.433262,-1.61034 0.168061,-0.65298 0.201822,-0.70071 0.618945,-0.87485 0.242659,-0.10132 0.631904,-0.34704 0.865075,-0.54589 0.374662,-0.3195 0.405465,-0.37924 0.264966,-0.51486 -0.08744,-0.0844 -0.445144,-0.24769 -0.794899,-0.36268 -0.349756,-0.11499 -0.718747,-0.24465 -0.819948,-0.28823 -0.247798,-0.10672 -0.362811,0.21577 -0.434504,1.21871 -0.05958,0.83347 -0.777875,3.5935 -0.935249,3.5935 -0.21704,0 -2.738679,-2.83884 -2.738679,-3.08318 0,-0.099 0.11394,-0.66149 0.253167,-1.24994 0.203486,-0.86006 0.307805,-1.11307 0.532004,-1.28924 0.1534,-0.12052 0.355574,-0.36708 0.449201,-0.54794 0.194906,-0.37648 0.567401,-1.62491 0.567401,-1.90168 0,-0.28654 -0.533586,-0.23413 -1.341808,0.13192 -0.385684,0.17468 -0.808785,0.3176 -0.940217,0.3176 -0.484267,0 -0.432684,0.34259 0.188375,1.25159 0.341679,0.50011 0.341478,0.47454 0.01201,2.00384 -0.09095,0.42214 -0.198084,0.76753 -0.238056,0.76753 -0.100916,0 -1.573959,-2.01618 -2.112281,-2.89108 -0.243898,-0.3964 -0.443405,-0.80915 -0.443405,-0.91725 0,-0.1081 0.171734,-0.6412 0.381717,-1.18481 0.209983,-0.5436 0.525397,-1.41713 0.70092,-1.94117 0.175523,-0.52405 0.47723,-1.23865 0.670283,-1.58802 0.364791,-0.66015 0.739338,-1.89082 0.629502,-2.06833 -0.112753,-0.18223 -0.514455,-0.10773 -1.163576,0.21566 -0.349756,0.17424 -0.767078,0.31697 -0.927383,0.31719 -0.444191,8e-4 -0.378673,0.40609 0.198932,1.23153 l 0.490395,0.70076 -0.500745,1.33657 c -0.275419,0.73519 -0.571351,1.56307 -0.657449,1.83965 -0.0861,0.27659 -0.191647,0.50287 -0.234744,0.50287 -0.220403,0 -1.620594,-3.49038 -1.764305,-4.39805 -0.06594,-0.41646 -0.0603,-0.42485 0.922622,-1.37317 1.816201,-1.75227 2.543225,-2.38057 2.754204,-2.38057 0.260361,0 1.158024,-0.90802 1.538049,-1.55575 0.267077,-0.45522 0.272847,-0.49275 0.09791,-0.62053 -0.215594,-0.15746 -2.348357,-0.13513 -2.509939,0.0263 -0.05884,0.0587 -0.01588,0.40621 0.109092,0.88168 0.237898,0.90511 0.301137,0.76623 -0.841476,1.84854 -2.076004,1.96643 -2.233042,2.10156 -2.33005,2.00466 -0.132924,-0.13277 -0.425603,-2.10825 -0.425603,-2.87269 v -0.60666 l 1.404323,-1.36263 c 0.818641,-0.79427 1.58256,-1.44092 1.831789,-1.55059 0.576602,-0.25374 1.745261,-1.62874 1.745261,-2.05345 0,-0.23653 -0.251924,-0.27598 -1.536807,-0.24048 -1.366443,0.0377 -1.338769,0.006 -1.013911,1.14883 l 0.219218,0.77105 -1.351329,1.3221 -1.351537,1.32189 -0.03022,-0.68668 c -0.01666,-0.37776 0.0099,-1.28367 0.0592,-2.01294 l 0.08963,-1.32581 0.678356,-0.84447 c 0.373102,-0.46438 1.026142,-1.18215 1.451106,-1.59504 1.036643,-1.00718 1.018339,-1.20606 -0.110541,-1.2094 -0.301268,-8.1e-4 -0.617713,-0.0459 -0.703196,-0.0999 -0.382074,-0.24137 -0.545218,0.37251 -0.308645,1.16123 0.113274,0.37765 0.09965,0.42053 -0.291463,0.91476 -0.225661,0.28516 -0.457052,0.54109 -0.514201,0.56883 -0.146071,0.0709 -0.07489,-0.71698 0.166846,-1.84771 0.111154,-0.51993 0.202037,-1.07921 0.202037,-1.24271 0,-0.34601 0.494903,-0.70654 1.521902,-1.10871 1.103913,-0.43229 1.123962,-0.61687 0.123996,-1.14842 -0.666798,-0.35445 -0.742774,-0.32168 -0.855138,0.36931 -0.07881,0.48465 -0.189841,0.68002 -0.411112,0.72349 -0.154641,0.0304 -0.170108,-0.0229 -0.107229,-0.37054 0.09808,-0.54223 0.154015,-0.63463 0.7624,-1.26193 0.564756,-0.58231 1.592163,-2.23315 1.688127,-2.71243 l 0.0592,-0.29569 z m 56.17686,0.23552 c -0.01855,-0.0186 -1.157383,0.21417 -2.530845,0.51713 l -2.497309,0.55084 -0.03249,2.92129 c -0.02167,1.94047 0.01202,3.2412 0.100397,3.87409 0.202193,1.44813 0.281239,4.98941 0.145314,6.51083 -0.407862,4.56529 -2.068136,8.43759 -5.354806,12.48906 -1.222717,1.50723 -3.98146,4.31394 -5.813742,5.91492 -0.684939,0.59847 -1.245342,1.11753 -1.245342,1.15338 0,0.0359 0.123046,-0.0504 0.273452,-0.19148 0.150405,-0.14116 0.376953,-0.26199 0.503436,-0.26838 0.126483,-0.006 0.790387,-0.2784 1.475326,-0.60461 0.684939,-0.32621 1.245346,-0.57158 1.245346,-0.54505 0,0.0266 -0.70349,0.40822 -1.563306,0.84818 -0.859816,0.43995 -1.491762,0.78003 -1.404323,0.75555 0.08744,-0.0245 1.991376,-0.64632 4.23098,-1.38166 2.2396,-0.73534 4.121254,-1.33699 4.181505,-1.33699 0.105773,0 1.463481,0.77798 4.566947,2.61692 0.813861,0.48224 1.502265,0.87671 1.529977,0.87671 0.02772,0 -0.08962,-0.14851 -0.260829,-0.33022 -0.171212,-0.18169 -0.430571,-0.45607 -0.576302,-0.60956 -0.14573,-0.15348 -1.075768,-1.13576 -2.066737,-2.18289 -0.990978,-1.04714 -2.091162,-2.20776 -2.444941,-2.57908 l -0.643371,-0.67511 -2.43024,1.50841 c -1.336705,0.82964 -3.188641,1.97945 -4.115469,2.55508 -0.926833,0.57563 -1.703969,1.02797 -1.726838,1.00513 -0.02287,-0.0229 0.497055,-0.5099 1.155295,-1.08225 1.656648,-1.44051 4.744019,-4.55164 5.717691,-5.76171 0.864459,-1.07436 2.089287,-2.84989 2.446387,-3.54616 0.119453,-0.2329 0.306496,-0.48627 0.415666,-0.56303 0.109169,-0.0768 0.17345,-0.18032 0.142626,-0.23014 -0.03084,-0.0499 0.117061,-0.48393 0.328723,-0.9648 0.404173,-0.91822 1.101478,-2.97054 1.101478,-3.24177 0,-0.12748 0.0913,-0.14508 0.463482,-0.0893 0.664205,0.0995 1.644247,-0.0869 2.383456,-0.45324 0.351268,-0.1741 1.177864,-0.71845 1.836966,-1.20983 1.435112,-1.06991 2.200828,-1.51284 3.263849,-1.88782 l 0.796144,-0.28081 -0.423945,-0.12612 c -0.69078,-0.2053 -1.80409,-0.25533 -2.518011,-0.11332 -1.424933,0.28344 -3.41484,1.4572 -4.879527,2.87848 l -0.657451,0.6381 0.847895,-0.59364 c 0.847498,-0.59331 1.430822,-0.94965 1.430822,-0.87404 0,0.0221 -0.321938,0.25932 -0.715411,0.52728 -0.393478,0.26796 -0.941959,0.66082 -1.218848,0.87279 -0.276888,0.21196 -0.503436,0.33301 -0.503436,0.26921 0,-0.0638 0.04621,-0.11599 0.102673,-0.11599 0.05646,0 0.0798,-0.0597 0.05175,-0.13275 -0.02804,-0.073 0.02163,-0.60896 0.110543,-1.19101 0.272907,-1.78674 0.312116,-4.09594 0.106815,-6.2987 -0.100397,-1.07721 -0.195611,-2.38731 -0.211562,-2.91135 -0.02259,-0.74238 -0.01422,-0.81252 0.0379,-0.3176 l 0.06686,0.6352 0.195206,-0.89987 c 0.107295,-0.49493 0.279769,-1.25718 0.38337,-1.69389 0.103598,-0.4367 0.275215,-1.19203 0.381304,-1.67857 0.222891,-1.02224 0.04797,-0.86645 2.39857,-2.13762 0.797894,-0.43148 1.435513,-0.79965 1.41695,-0.81819 z m -56.328802,0.28121 c 0.06382,0.008 0.09688,0.0282 0.09688,0.0593 0,0.16978 -1.01102,1.79267 -1.229818,1.97405 -0.298485,0.24745 -0.755761,0.18872 -0.897368,-0.11517 -0.159823,-0.34297 -0.522481,-1.38319 -0.522481,-1.49869 0,-0.0491 0.178853,-0.0904 0.39745,-0.0918 0.218597,-0.002 0.588226,-0.0503 0.821397,-0.10856 0.675046,-0.169 1.142475,-0.24463 1.333941,-0.21918 z m 49.45354,0.26177 c -0.0422,-0.0421 -5.06417,0.14907 -5.109716,0.19457 -0.02199,0.022 0.854208,0.2693 1.947089,0.5496 l 1.987046,0.5097 0.501986,0.96894 c 0.276092,0.53288 0.834524,1.62377 1.240996,2.42439 0.406468,0.80063 0.760452,1.45569 0.786622,1.45569 0.02616,0 -0.02195,-0.19648 -0.106819,-0.43671 -0.210004,-0.59457 -0.18105,-0.65638 0.06811,-0.14556 0.1136,0.2329 0.181017,0.33479 0.149872,0.22641 -0.03117,-0.10837 -0.367267,-1.43959 -0.74708,-2.95829 -0.379818,-1.5187 -0.702989,-2.77365 -0.718103,-2.78874 z m -52.40295,0.88271 c 0.05702,-0.0324 0.111004,0.0782 0.187961,0.31678 0.07169,0.22225 0.270384,0.7067 0.441542,1.07645 0.171158,0.36976 0.291918,0.69141 0.268485,0.71481 -0.02343,0.0234 -0.311479,-0.20759 -0.640267,-0.51341 l -0.597831,-0.55621 0.133519,-0.49772 c 0.08941,-0.33302 0.149573,-0.50833 0.206591,-0.5407 z m -0.692639,0.0539 c 0.02714,0.001 0.02852,0.0503 0.02774,0.14764 -8.82e-4,0.11092 -0.04083,0.26357 -0.08881,0.3391 -0.07069,0.11132 -0.11042,0.1092 -0.209903,-0.0105 -0.09589,-0.11542 -0.0765,-0.18948 0.08881,-0.33891 0.102221,-0.0924 0.15503,-0.13863 0.182165,-0.1373 z m 62.352448,1.50325 c -0.460991,0.0663 -1.34086,0.3335 -1.876503,0.59529 -1.577542,0.77102 -2.995305,2.44846 -4.220008,4.99252 -0.650145,1.35054 -0.672061,1.62651 -0.119649,1.51006 0.182059,-0.0384 0.607346,-0.21524 0.944979,-0.39308 0.869057,-0.45775 1.585,-1.28746 2.727085,-3.16031 0.792855,-1.30016 1.181753,-1.81752 1.930532,-2.5677 0.515746,-0.51669 0.923749,-0.95257 0.90668,-0.96851 -0.03233,-0.0302 -0.139454,-0.0304 -0.293116,-0.008 z m -63.814733,0.58125 c 0.128273,-0.046 0.215792,0.0827 0.218184,0.35565 0.0018,0.21137 -0.07579,0.22612 -0.35046,0.0666 -0.184176,-0.10698 -0.184604,-0.12169 -0.0079,-0.31677 0.05018,-0.0553 0.09739,-0.0901 0.140143,-0.10545 z m 4.565293,0.22332 c 0.05829,0 0.105986,0.0476 0.105986,0.10586 0,0.0582 -0.04769,0.10587 -0.105986,0.10587 -0.05829,0 -0.105987,-0.0477 -0.105987,-0.10587 0,-0.0582 0.04769,-0.10586 0.105987,-0.10586 z m 47.492784,0.45406 c -0.09336,0.0258 -1.29055,0.51199 -2.660428,1.08039 -2.365054,0.98134 -3.04553,1.30913 -2.437695,1.17447 0.145731,-0.0323 0.980379,-0.13106 1.854768,-0.21959 0.874388,-0.0885 1.828669,-0.18986 2.120559,-0.22517 l 0.530764,-0.0643 1.899684,1.73214 c 1.044896,0.95262 2.093969,1.90862 2.331088,2.12459 0.499187,0.45465 0.528249,0.47021 0.385442,0.20367 -0.05829,-0.10881 -0.08094,-0.2229 -0.0503,-0.25351 0.03064,-0.0307 -0.197574,-0.41603 -0.507161,-0.85646 -0.309588,-0.44042 -1.178021,-1.68781 -1.929912,-2.77198 -0.984673,-1.41982 -1.414547,-1.95801 -1.536808,-1.92423 z m 7.597507,1.90666 c 0.05304,-0.009 -0.0802,0.22257 -0.384824,0.63459 -0.224173,0.30319 -0.751339,1.12162 -1.171443,1.81855 -0.420104,0.69693 -0.791525,1.29243 -0.825534,1.32335 -0.03401,0.031 0.191445,-0.42037 0.501157,-1.00265 0.647749,-1.2178 1.121478,-1.96209 1.580694,-2.48374 0.169221,-0.19223 0.268124,-0.28457 0.29995,-0.2901 z m -55.460831,0.50431 c 0.05358,-0.004 0.123542,0.001 0.211973,0.012 l 0.284425,0.0344 -0.264759,0.2473 -0.264967,0.24729 -0.07266,-0.22868 c -0.06907,-0.21738 -0.05475,-0.30175 0.105987,-0.31223 z m -3.76294,0.0498 v 0.66001 c 0,0.36295 -0.03577,0.65969 -0.07949,0.6594 -0.04372,-2.9e-4 -0.222573,-0.11666 -0.39745,-0.25847 l -0.31796,-0.25784 0.39745,-0.40156 z m 64.26766,0.15756 c -0.138216,-0.003 -0.326524,0.009 -0.565747,0.0337 -1.880888,0.19637 -3.8467,1.64248 -5.454378,4.01262 -0.719721,1.06106 -0.740243,1.3471 -0.03084,0.43091 0.261987,-0.33837 0.612799,-0.73397 0.77958,-0.87899 0.295988,-0.25735 0.295387,-0.25482 -0.02424,0.10587 -0.180092,0.20325 -0.549723,0.64781 -0.821396,0.98796 -0.271673,0.34014 -0.494896,0.55452 -0.49619,0.4764 -0.0012,-0.0785 -0.09509,-0.0238 -0.209695,0.12261 -0.236683,0.30224 -0.274409,0.4726 -0.07949,0.35876 0.07286,-0.0426 0.04902,0.0179 -0.05299,0.1344 -0.102012,0.11649 -0.185476,0.2459 -0.185476,0.28762 0,0.0951 0.649059,-0.0185 1.255276,-0.21959 0.979156,-0.32488 1.707466,-0.96999 3.024555,-2.67853 1.01923,-1.32214 2.041333,-2.34204 2.763518,-2.75772 0.474743,-0.27326 0.512145,-0.40793 0.0975,-0.41602 z m -13.481006,0.27542 -0.07701,0.51321 c -0.04238,0.28228 -0.04959,0.90302 -0.01594,1.37937 0.07688,1.08822 0.435238,2.01181 1.252176,3.2273 0.961399,1.43044 3.967323,4.27073 3.67103,3.46881 -0.210296,-0.56916 -0.411895,-1.26507 -0.376544,-1.30038 0.02359,-0.0236 0.132363,0.22958 0.241577,0.56262 0.290216,0.885 0.411736,0.93768 0.326032,0.14122 -0.151135,-1.40455 -0.632635,-2.25355 -2.280371,-4.02027 -1.385068,-1.48507 -1.85121,-2.10902 -2.339572,-3.13156 z m 3.797097,1.51728 c -0.0085,-0.0238 0.09721,0.0907 0.309472,0.32236 0.240055,0.26203 0.484729,0.55979 0.543802,0.66168 0.215103,0.37103 0.01378,0.17018 -0.477563,-0.47641 -0.244509,-0.32178 -0.367195,-0.48383 -0.375711,-0.50763 z m -48.193087,1.03078 -0.199553,0.33724 c -0.109657,0.18543 -0.350686,0.48355 -0.535729,0.6627 -0.315117,0.30509 -0.343166,0.31331 -0.442784,0.12737 -0.0585,-0.10918 -0.139701,-0.37636 -0.180509,-0.59364 -0.07415,-0.39479 -0.07406,-0.39514 0.295189,-0.39514 0.203225,0 0.525663,-0.0312 0.716445,-0.0692 z m -7.132571,1.26027 v 0.70943 c 0,0.39029 -0.03577,0.70686 -0.07949,0.70323 -0.04372,-0.004 -0.233811,-0.1108 -0.422497,-0.2382 -0.188688,-0.12739 -0.343693,-0.25783 -0.344457,-0.28968 -7.61e-4,-0.0319 0.189328,-0.24402 0.422498,-0.47144 z m 49.01883,0.2016 -0.03457,0.74107 c -0.117714,2.5197 1.66176,5.09716 5.114475,7.40782 1.05231,0.70425 1.181894,0.65064 0.962368,-0.39741 -0.269013,-1.2843 -0.601009,-1.81325 -1.941917,-3.09332 -2.612808,-2.49425 -3.168816,-3.08638 -3.63439,-3.87181 z m -15.527046,0.11889 c 0,0.0302 -0.492801,0.7303 -1.095056,1.55597 -0.602259,0.82567 -1.180099,1.63217 -1.284053,1.79229 -0.103955,0.16013 -0.222214,0.29115 -0.262897,0.29115 -0.04068,0 -0.214025,-0.14722 -0.385237,-0.32733 -0.411571,-0.43296 -1.155271,-0.8022 -2.14975,-1.06715 -0.648552,-0.17279 -1.140692,-0.21643 -2.454046,-0.21814 -2.020654,-0.003 -3.339036,0.2013 -4.954877,0.76691 -0.80427,0.28153 -1.19235,0.37427 -1.19235,0.28473 0,-0.12189 0.359217,-0.48875 2.032377,-2.07496 l 0.601558,-0.57028 0.405316,0.31864 c 0.869603,0.68363 1.268049,0.81968 2.366069,0.80765 0.774542,-0.008 1.141381,-0.065 1.5898,-0.24544 1.638428,-0.65908 2.409776,-0.68749 3.446636,-0.12655 l 0.603421,0.32651 1.366649,-0.78451 c 0.751607,-0.4314 1.36644,-0.75961 1.36644,-0.72949 z m -25.348614,2.3204 c 0.11587,0.10094 -0.65888,1.10726 -0.852447,1.10726 -0.04883,0 -0.128468,-0.10718 -0.176782,-0.2382 -0.04832,-0.13101 -0.118052,-0.36333 -0.155047,-0.5163 -0.06571,-0.27172 -0.05324,-0.27921 0.540904,-0.33063 0.334496,-0.029 0.624076,-0.039 0.643372,-0.0221 z m 38.443554,0.95053 -0.08652,0.47537 c -0.0476,0.26147 -0.05581,0.78435 -0.01823,1.16186 0.196132,1.96878 1.252372,3.85981 3.207753,5.74269 0.893877,0.86072 2.999451,2.51663 3.199885,2.51663 0.05116,0 0.01835,-0.17866 -0.07287,-0.39701 -0.368581,-0.88239 -0.891666,-1.81748 -1.465804,-2.62022 -0.446314,-0.62401 -0.51666,-0.76334 -0.267243,-0.52934 0.42953,0.403 1.375318,1.81913 1.767617,2.64669 0.271401,0.57252 0.304373,0.60625 0.334937,0.34035 0.05462,-0.47514 -0.409713,-1.85015 -0.859696,-2.54558 -0.396778,-0.61321 -0.98615,-1.23426 -3.081269,-3.24694 -1.102679,-1.05929 -1.702547,-1.80699 -2.255531,-2.81191 z m -19.241959,0.94495 c 0.113904,-0.002 0.232555,0.007 0.344663,0.028 0.275733,0.0526 0.279678,0.0635 0.128758,0.35503 -0.229003,0.44235 -0.208293,0.66413 0.04927,0.52645 0.362664,-0.19387 0.808384,-0.12007 1.262938,0.20884 0.241914,0.17504 0.439888,0.36279 0.439888,0.41726 0,0.0571 -0.324914,0.077 -0.768403,0.047 l -0.768405,-0.0521 0.358328,0.20036 c 0.47203,0.26411 0.640254,0.59211 0.64482,1.25717 0.0049,0.71966 -0.181879,0.7649 -0.502611,0.12199 -0.257028,-0.51521 -0.654159,-0.88285 -1.026123,-0.94991 -0.177234,-0.032 -0.239298,0.10688 -0.475077,1.06363 -0.223851,0.90837 -0.312274,1.11554 -0.506335,1.18647 -0.285483,0.10435 -0.377029,-0.016 -0.286495,-0.37633 0.04545,-0.18088 0.140437,-0.26964 0.288565,-0.26964 0.206145,0 0.20825,-0.009 0.03374,-0.13646 -0.233248,-0.17036 -0.133679,-0.70944 0.131448,-0.71192 0.14079,-10e-4 0.145924,-0.0193 0.02712,-0.0945 -0.118002,-0.0746 -0.123174,-0.16098 -0.02608,-0.43919 0.06644,-0.19037 0.106091,-0.36091 0.08798,-0.37901 -0.01811,-0.0181 -0.207862,0.0153 -0.421463,0.0742 -0.558121,0.15392 -0.702279,0.41409 -0.635713,1.14737 0.04333,0.47726 0.0064,0.71921 -0.170986,1.11989 -0.124475,0.28108 -0.244506,0.49189 -0.266623,0.46833 -0.02212,-0.0236 -0.115809,-0.34103 -0.208454,-0.70529 -0.09264,-0.36427 -0.250816,-0.78745 -0.351288,-0.94061 -0.181959,-0.2774 -0.717547,-0.56739 -1.048274,-0.56739 -0.171877,0 -0.166557,0.19575 0.01863,0.6778 0.043,0.11193 -0.01855,0.20449 -0.184856,0.27749 -0.245361,0.10769 -0.245562,0.10865 -0.0097,0.063 0.158151,-0.0306 0.275489,0.0202 0.344457,0.14888 0.156541,0.29217 0.127214,0.63252 -0.05444,0.63252 -0.08744,0 -0.15898,0.0532 -0.15898,0.11827 0,0.065 0.09232,0.0942 0.205142,0.0647 0.402157,-0.10504 0.451516,0.57233 0.05486,0.75286 -0.363183,0.16529 -0.348214,0.17509 -0.418772,-0.27418 -0.164655,-1.04845 -0.5377,-2.30201 -0.693881,-2.33157 -0.450157,-0.0852 -1.562139,1.33013 -1.595596,2.03092 -0.02397,0.50198 -0.180378,-0.32167 -0.189203,-0.99624 -0.01095,-0.83691 0.128536,-1.13728 0.678771,-1.46166 l 0.421876,-0.24874 -0.87646,0.0581 c -0.844627,0.0559 -0.872368,0.0506 -0.765712,-0.14846 0.302426,-0.56446 1.293443,-0.90553 1.817298,-0.62549 0.3139,0.1678 0.356341,0.0485 0.160429,-0.44973 -0.0959,-0.24386 -0.148667,-0.46893 -0.117371,-0.50018 0.07975,-0.0797 1.188176,-0.0714 1.269148,0.01 0.03658,0.0366 -0.01531,0.19122 -0.115302,0.34367 -0.244757,0.37313 -0.145092,0.43286 0.285253,0.17079 0.377287,-0.22976 0.887707,-0.28082 1.150328,-0.11497 0.11345,0.0716 0.232809,0.03 0.423947,-0.14846 0.412479,-0.3849 0.693391,-0.42504 1.184484,-0.16935 0.344068,0.17914 0.41953,0.19177 0.366813,0.0614 -0.03649,-0.0902 -0.09277,-0.22887 -0.125031,-0.30809 -0.05156,-0.1266 0.24701,-0.2265 0.588722,-0.23241 z m 32.301295,0.0761 c 0.03445,-0.0131 0.064,-0.0132 0.08032,0.003 0.03265,0.0326 -0.02632,0.0917 -0.130829,0.13152 -0.151055,0.0574 -0.163096,0.0454 -0.0592,-0.0591 0.03593,-0.0362 0.07527,-0.0623 0.109711,-0.0755 z m -23.254961,0.39575 c 0.0096,-0.0236 0.02239,-0.0127 0.03581,0.0389 0.02688,0.103 0.0252,0.24593 -0.004,0.31761 -0.02904,0.0717 -0.05101,-0.0127 -0.04885,-0.18734 8.01e-4,-0.0873 0.0074,-0.14553 0.01698,-0.16915 z m 3.459885,0.0632 c 0.11926,0 0.151034,0.1015 0.126895,0.4059 -0.0177,0.22318 0.02376,0.47329 0.09232,0.5558 0.102043,0.12282 0.07545,0.14991 -0.146973,0.14991 -0.149428,0 -0.302505,-0.0496 -0.340108,-0.11041 -0.03761,-0.0607 -0.01819,-0.17072 0.04305,-0.2444 0.06123,-0.0737 0.101094,-0.27419 0.0886,-0.44539 -0.01578,-0.21624 0.0258,-0.31141 0.136209,-0.31141 z m -14.057102,0.47641 c -0.388911,0 -0.539238,0.15128 -0.362052,0.36454 0.109713,0.13204 0.911506,0.11915 1.064627,-0.0172 0.115609,-0.1029 -0.378743,-0.34738 -0.702575,-0.34738 z m 14.852,0.10586 c 0.219738,0 0.422527,0.41455 0.274905,0.56201 -0.124476,0.12434 -0.158509,0.63051 -0.04968,0.73921 0.03637,0.0364 0.146496,-0.0331 0.244891,-0.15445 0.125245,-0.1545 0.245379,-0.19967 0.400347,-0.15054 0.252012,0.0799 0.416591,0.56625 0.248403,0.73425 -0.06152,0.0614 -0.111986,0.28621 -0.111986,0.49955 0,0.37916 0.0089,0.38773 0.393514,0.37592 0.333666,-0.0103 0.416142,0.034 0.541527,0.29093 0.196456,0.4026 -0.0053,0.84313 -0.34425,0.75183 -0.195747,-0.0527 -0.199477,-0.0465 -0.03437,0.0568 0.102012,0.0639 0.185669,0.22112 0.185889,0.34924 2.16e-4,0.12812 0.09259,0.3841 0.205349,0.56883 0.153811,0.25196 0.25974,0.32151 0.423533,0.27873 0.120086,-0.0314 0.328038,0.0149 0.462245,0.10276 0.234379,0.15341 0.240932,0.19508 0.165187,1.05806 -0.04414,0.50288 -0.20984,1.28858 -0.376333,1.78465 -0.246344,0.734 -0.338978,0.89217 -0.539248,0.92055 -0.210064,0.0298 -0.233534,0.0785 -0.178646,0.37074 0.05348,0.28478 -0.01727,0.45001 -0.461416,1.07729 -0.609506,0.8608 -1.247248,1.5066 -1.149707,1.16433 0.162591,-0.57055 0.59742,-3.06199 0.664281,-3.80626 l 0.07556,-0.84219 0.209695,0.55106 c 0.115271,0.30303 0.26919,0.55084 0.342179,0.55084 0.171649,0 0.474871,-0.63867 0.474871,-1.00037 0,-0.15421 -0.07427,-0.42382 -0.164982,-0.59903 -0.09071,-0.17521 -0.150326,-0.47069 -0.132484,-0.6565 0.03149,-0.32799 0.01871,-0.3394 -0.443405,-0.3908 -0.562001,-0.0625 -0.661698,-0.27673 -0.326657,-0.70219 0.388654,-0.49354 0.210048,-1.30928 -0.286699,-1.30928 -0.576357,0 -0.692357,-0.24262 -0.343216,-0.71875 0.13451,-0.18344 0.187519,-0.37287 0.146768,-0.5252 -0.05233,-0.19562 -0.138064,-0.2382 -0.478804,-0.2382 -0.471358,0 -0.633577,-0.21346 -0.365569,-0.48116 0.188869,-0.18866 0.215267,-0.44687 0.06914,-0.67759 -0.120098,-0.18961 0.04722,-0.53513 0.259171,-0.53513 z m -16.238314,0.35296 c -0.109463,0.0157 -0.203831,0.0536 -0.299122,0.116 -0.376664,0.24652 -0.323762,0.36039 0.188995,0.40651 0.247744,0.0223 0.492971,0.0488 0.544838,0.0589 0.05187,0.0102 0.157513,-0.0649 0.234951,-0.16686 0.212329,-0.2794 0.184287,-0.31909 -0.279871,-0.39743 -0.15577,-0.0263 -0.280328,-0.0329 -0.389791,-0.0172 z m 29.675024,0.6412 c 0.0278,-0.0278 0.07871,0.0231 0.113231,0.1129 0.07167,0.18655 0.01054,0.21936 -0.09398,0.0504 -0.03841,-0.0621 -0.04703,-0.13561 -0.01927,-0.16336 z m -18.526966,0.062 c 0.03802,-0.002 0.05589,0.021 0.05589,0.0682 0,0.14059 -2.084259,2.53985 -3.278551,3.77401 -2.246422,2.3214 -4.70026,4.24364 -8.432977,6.60616 -2.250886,1.42464 -3.836461,2.36915 -3.951315,2.3539 -0.04193,-0.006 -0.386189,-0.19619 -0.765091,-0.42367 -0.704808,-0.42315 -0.979159,-0.70965 -0.508198,-0.53079 0.216711,0.0823 0.278146,0.0504 0.438023,-0.22786 0.148542,-0.25853 0.152822,-0.29625 0.02194,-0.18775 -0.134188,0.11123 -0.164067,0.10953 -0.165397,-0.01 -0.0013,-0.11412 -0.02364,-0.11126 -0.104331,0.0135 -0.05651,0.0873 -0.103438,0.11738 -0.104331,0.0666 -8.81e-4,-0.0508 -0.08104,-0.027 -0.178024,0.0529 -0.158584,0.13067 -0.164358,0.1231 -0.05858,-0.0752 0.09746,-0.18276 0.08664,-0.22117 -0.06231,-0.22414 -0.09886,-0.002 -0.27421,0.0733 -0.389791,0.16749 -0.200415,0.16328 -0.202869,0.16193 -0.05299,-0.0323 0.146736,-0.19014 0.140116,-0.19937 -0.09998,-0.13751 -0.157342,0.0406 -0.373302,-0.002 -0.55643,-0.1102 -0.361605,-0.21337 -0.375415,-0.30478 -0.06086,-0.40321 0.529232,-0.16562 4.765975,-2.00682 6.209534,-2.69859 1.835904,-0.87978 3.331012,-1.70306 5.175958,-2.85035 0.747685,-0.46497 1.407095,-0.88182 1.465388,-0.92635 0.0583,-0.0445 0.241245,-0.15083 0.40656,-0.23613 0.165315,-0.0853 0.42763,-0.27391 0.582927,-0.41934 0.155293,-0.1454 0.339904,-0.27373 0.410077,-0.28492 0.195699,-0.0313 0.969979,-0.66633 1.565994,-1.28446 0.294754,-0.30571 0.577175,-0.55582 0.62764,-0.55582 0.05046,0 0.443165,-0.33348 0.872734,-0.74107 0.528296,-0.50126 0.822478,-0.73683 0.936491,-0.74355 z m 1.18469,0.002 c 0.221829,0 0.188605,0.0735 -0.827605,1.83737 -2.219708,3.85276 -4.631104,8.05385 -5.174097,9.01403 -0.329273,0.58228 -1.067473,1.86857 -1.640309,2.85843 -0.572833,0.98986 -1.160667,2.01413 -1.306202,2.27616 -0.145535,0.26202 -0.271282,0.4858 -0.279457,0.49707 -0.0082,0.0113 -0.252047,-0.10898 -0.54194,-0.26715 -0.289891,-0.15818 -0.980128,-0.49823 -1.533908,-0.75576 -0.55378,-0.25751 -1.043514,-0.49811 -1.088434,-0.53451 -0.04492,-0.0365 0.406434,-0.49159 1.003148,-1.01152 2.653183,-2.31179 5.273738,-4.9182 6.559786,-6.52471 1.107466,-1.3834 2.289552,-3.16505 3.336511,-5.02869 0.451345,-0.80343 0.934379,-1.66332 1.073529,-1.91079 0.139145,-0.24746 0.327762,-0.44993 0.418978,-0.44993 z m 0.619981,0 c 0.31703,0 0.318853,0.0173 0.06893,0.68979 -0.978928,2.63431 -1.018153,2.7216 -1.257555,2.81251 -0.133229,0.0506 -0.242194,0.11986 -0.242194,0.15385 0,0.034 0.04447,0.0345 0.09874,8e-4 0.293604,-0.18126 0.117466,0.42056 -0.933387,3.19131 -1.598027,4.21349 -1.628732,4.28961 -1.699306,4.19397 -0.111477,-0.15108 -0.305834,-0.13543 -0.369294,0.0298 -0.03517,0.0916 -0.01674,0.13295 0.04285,0.0962 0.05762,-0.0356 0.104743,-0.0113 0.104743,0.0537 0,0.0651 0.05283,0.0857 0.11737,0.0459 0.08064,-0.0497 0.09285,0.006 0.03894,0.17907 -0.140226,0.44927 -1.412142,3.78824 -1.508654,3.96051 -0.05157,0.0921 -0.468237,0.32998 -0.925935,0.52873 -0.457703,0.19875 -1.164104,0.55323 -1.569719,0.78779 -0.405615,0.23458 -0.790816,0.42411 -0.855967,0.421 -0.06515,-0.003 -0.270819,-0.13249 -0.457068,-0.28742 l -0.338661,-0.28162 1.981453,-2.01521 c 3.532794,-3.59313 3.77013,-4.00315 5.946017,-10.27306 0.404137,-1.16455 0.905578,-2.58711 1.114308,-3.16134 0.20873,-0.57425 0.379441,-1.06255 0.379441,-1.08515 0,-0.0226 0.119237,-0.0412 0.264968,-0.0412 z m 0.746668,0 c 0.0848,0 0.154219,0.0277 0.154219,0.0612 0,0.0772 -2.147911,10.88518 -2.502072,12.58995 -0.14515,0.69868 -0.297398,1.30192 -0.338245,1.34051 -0.05732,0.0541 -2.121373,0.94704 -3.085828,1.33492 -0.107451,0.0433 -0.12408,0.0176 -0.05858,-0.0902 0.05024,-0.0827 0.314591,-0.43617 0.587274,-0.78552 0.815423,-1.04473 1.84315,-2.6786 2.46398,-3.9171 1.078068,-2.15066 1.755624,-4.55091 2.241455,-7.94005 0.385485,-2.68914 0.365693,-2.59375 0.537798,-2.59375 z m 0.66904,0.0199 c 0.04775,0.004 0.08865,0.0198 0.11116,0.0454 0.04502,0.0514 0.02147,1.35592 -0.05237,2.89895 -0.07384,1.54301 -0.18915,4.28196 -0.256271,6.08656 -0.06712,1.80457 -0.165708,3.33352 -0.219013,3.39767 -0.09744,0.11729 -2.347183,1.31425 -2.470193,1.31425 -0.03621,0 -0.06583,-0.0211 -0.06583,-0.047 0,-0.0259 0.170639,-0.41892 0.379233,-0.8734 0.96095,-2.09373 1.619976,-4.13672 1.957027,-6.06691 0.262452,-1.50301 0.439392,-4.38109 0.349634,-5.68769 -0.05923,-0.86216 -0.0458,-0.98484 0.114474,-1.04627 0.04993,-0.0192 0.104403,-0.0261 0.152148,-0.0217 z m -40.03294,0.0435 0.204521,0.45634 c 0.112493,0.25098 0.204521,0.52259 0.204521,0.60357 0,0.14425 -0.275849,0.17514 -0.662417,0.0742 -0.213347,-0.0557 -0.219078,-0.0763 -0.09088,-0.32546 0.05202,-0.1011 0.150768,-0.32442 0.219425,-0.49625 z m 8.599616,0.22807 c 0.06906,-0.009 0.07639,0.0387 0.07639,0.13523 0,0.31281 -0.325428,1.0558 -0.461829,1.05433 -0.06654,-8e-4 -0.225433,-0.16226 -0.352943,-0.35896 l -0.231846,-0.35752 0.523309,-0.27128 c 0.247059,-0.12803 0.377864,-0.19301 0.446924,-0.2018 z m 32.121615,0.0595 c 0.08756,-0.0875 0.198243,0.4386 0.152148,0.72349 -0.02976,0.18384 -0.06267,0.12948 -0.125441,-0.208 -0.04676,-0.25139 -0.05882,-0.48343 -0.02672,-0.51549 z m 15.021747,0.41831 c 0.01029,-0.0252 0.0667,0.0426 0.162708,0.21958 0.08967,0.16527 0.143059,0.32028 0.11882,0.34448 -0.02424,0.0242 -0.0995,-0.0776 -0.167262,-0.2262 -0.08879,-0.19465 -0.124541,-0.31268 -0.114266,-0.33786 z m 7.988537,0.08 c -0.620446,-0.0234 -1.294733,0.0261 -1.79722,0.15672 -0.754023,0.19614 -1.886894,0.71695 -2.718184,1.24975 -1.015818,0.65104 -2.959734,2.29661 -2.713009,2.29661 0.03665,0 0.624828,-0.40681 1.307031,-0.90421 1.928762,-1.40628 2.21218,-1.50097 0.467624,-0.15612 -0.553781,0.42691 -1.263628,0.99222 -1.577382,1.25614 -0.493974,0.4155 -0.54371,0.49031 -0.370952,0.55808 0.329929,0.12943 1.019322,0.10267 1.66184,-0.0645 0.880249,-0.22902 1.716234,-0.68287 2.954998,-1.60414 0.601691,-0.44747 1.244913,-0.92402 1.429164,-1.05908 0.486251,-0.35646 1.689324,-0.9376 2.397328,-1.15794 0.490558,-0.15267 0.576927,-0.2108 0.432846,-0.29134 -0.287007,-0.16044 -0.853635,-0.2566 -1.474084,-0.27996 z m -7.672231,0.65318 c 0.01037,-0.0236 0.04931,0.0129 0.111782,0.12014 0.06186,0.10627 0.09001,0.21549 0.06272,0.24275 -0.02728,0.0273 -0.07937,-0.0278 -0.115715,-0.12241 -0.05114,-0.13311 -0.06917,-0.21685 -0.05879,-0.24048 z m -27.451581,2.94403 c 0.06173,0 0.08281,0.0476 0.04678,0.10587 -0.03603,0.0582 -0.08649,0.10587 -0.112197,0.10587 -0.02571,0 -0.04678,-0.0477 -0.04678,-0.10587 0,-0.0582 0.05046,-0.10587 0.112197,-0.10587 z m -0.355221,0.14371 c 0.01921,0.007 0.03105,0.0265 0.03105,0.0556 0,0.0582 -0.04769,0.13523 -0.105987,0.17121 -0.05829,0.036 -0.105986,0.0179 -0.105986,-0.0404 0,-0.0582 0.04769,-0.13542 0.105986,-0.1714 0.02915,-0.018 0.05573,-0.0224 0.07494,-0.0151 z m -8.600651,0.27976 c 0.02571,0 0.04678,0.0476 0.04678,0.10587 0,0.0582 -0.05046,0.10586 -0.112196,0.10586 -0.06173,0 -0.08281,-0.0477 -0.04678,-0.10586 0.03603,-0.0582 0.08649,-0.10587 0.112198,-0.10587 z m 7.873649,0.0267 c 0.06473,-0.009 0.122133,0.0234 0.122133,0.10566 0,0.0825 -0.07282,0.15012 -0.161878,0.15012 -0.08906,0 -0.145695,-0.0488 -0.125859,-0.10815 0.02887,-0.0865 0.100876,-0.1382 0.165604,-0.14763 z m -25.443422,0.0315 0.157738,0.37736 c 0.321436,0.76844 0.326273,0.83618 0.05776,0.82276 -0.135087,-0.007 -0.329181,-0.0342 -0.431193,-0.0608 -0.235425,-0.0614 -0.229339,-0.30448 0.01946,-0.77127 z m 24.349813,0.38667 c 0.06812,0.0692 -0.08674,0.6139 -0.174505,0.6139 -0.0515,0 -0.08784,-0.0358 -0.08094,-0.0794 0.04217,-0.26678 -0.03089,-0.35365 -0.251097,-0.29919 -0.131159,0.0325 -0.07783,-0.0146 0.118406,-0.10421 0.196233,-0.0897 0.370917,-0.14859 0.388135,-0.1311 z m -10.827199,0.0988 c 0.02261,0.0103 0.0526,0.0363 0.09295,0.0697 0.195566,0.16211 0.165225,0.91277 -0.0385,0.95197 -0.131538,0.0253 -0.159877,-0.0685 -0.143247,-0.47578 0.01909,-0.46758 0.02098,-0.57688 0.08881,-0.54589 z m 25.691207,0.0325 c 0.0524,0.0523 0.06852,0.1926 0.400555,3.48742 l 0.19086,1.893 -0.363089,0.30188 c -0.65516,0.54442 -1.582141,1.16803 -1.582141,1.06447 0,-0.0558 0.09459,-0.40717 0.210112,-0.78078 0.515414,-1.66683 0.979341,-3.87644 1.035025,-4.92985 0.03161,-0.59811 0.08044,-1.06435 0.108678,-1.03614 z m 17.113741,0.165 c -0.112707,0 -3.764145,2.98022 -4.962743,4.05047 -0.8236,0.7354 -0.232076,0.5377 2.39919,-0.80187 l 2.726256,-1.38786 3.047946,1.18894 c 1.676421,0.65398 3.06005,1.17627 3.074647,1.16062 0.01458,-0.0157 -0.910617,-0.6568 -2.055974,-1.42487 -1.145357,-0.76807 -2.534659,-1.70895 -3.087274,-2.09088 -0.552615,-0.38192 -1.066471,-0.69455 -1.142048,-0.69455 z m -32.965577,0.0542 c 0.05693,0.0109 0.126924,0.0367 0.207419,0.0788 0.259878,0.13614 0.293525,0.50224 0.04616,0.50224 -0.073,0 -0.240653,0.11466 -0.372403,0.25475 -0.35832,0.38099 -0.581442,0.39324 -0.993003,0.0543 -0.201429,-0.16584 -0.396464,-0.27143 -0.433262,-0.23467 -0.0368,0.0368 -0.06686,0.0165 -0.06686,-0.0452 0,-0.21252 0.298375,-0.22607 0.483357,-0.022 0.259036,0.2859 0.385714,0.25494 0.345699,-0.0846 -0.02452,-0.20808 0.01785,-0.29941 0.151321,-0.32546 0.15043,-0.0294 0.185476,0.0399 0.185476,0.36579 v 0.40175 l 0.236814,-0.23655 c 0.199268,-0.19904 0.21628,-0.26898 0.108057,-0.44207 -0.123959,-0.19827 -0.06957,-0.29983 0.101226,-0.26716 z m 20.194806,0.15921 c -0.186277,-0.004 -0.06144,0.73659 0.185477,1.10003 0.14573,0.21451 0.264967,0.50765 0.264967,0.65153 0,0.14388 0.170619,0.51842 0.379233,0.83226 l 0.37944,0.5707 -0.214249,0.77746 c -1.041956,3.78271 -1.718066,6.36511 -1.689164,6.45171 0.01911,0.0572 0.314936,-0.54223 0.657447,-1.33224 0.342511,-0.79001 0.644869,-1.41426 0.67194,-1.38722 0.02708,0.0271 -0.191024,0.65956 -0.484805,1.40563 -0.843336,2.1417 -0.789995,1.96248 -0.546287,1.83221 0.115752,-0.0618 0.210525,-0.13761 0.210525,-0.16811 0,-0.0305 -0.0477,-0.0261 -0.105989,0.01 -0.05829,0.036 -0.105986,0.0447 -0.105986,0.019 0,-0.0257 0.933339,-1.60873 2.073985,-3.51782 l 2.07378,-3.47109 -1.312828,-1.33204 c -0.722104,-0.73258 -1.548131,-1.58138 -1.835515,-1.88617 -0.287388,-0.30478 -0.558251,-0.55489 -0.601971,-0.5558 z m -34.456222,0.45532 c 0.05437,0.0543 -0.293163,1.04854 -0.443612,1.26916 -0.120236,0.17631 -0.155815,0.16032 -0.460794,-0.20925 -0.181738,-0.22023 -0.33038,-0.43385 -0.33038,-0.47454 0,-0.0835 1.178104,-0.64199 1.234786,-0.58537 z m 7.904079,0.11847 c 0.02995,-0.008 0.06229,-0.005 0.08943,0.0114 0.147008,0.0908 0.119513,0.15425 -0.06665,0.15425 -0.09088,0 -0.135356,-0.0483 -0.09874,-0.10752 0.01831,-0.0296 0.04602,-0.0496 0.07597,-0.0581 z m 3.89708,0.068 c 0.05437,-0.006 0.106401,0.11249 0.106401,0.36226 0,0.25878 0.04795,0.37053 0.15898,0.37053 0.08744,0 0.15898,0.0476 0.15898,0.10587 0,0.0582 -0.07154,0.10587 -0.15898,0.10587 -0.216595,0 -0.202074,0.18797 0.0178,0.23055 0.0991,0.0192 -0.750635,0.58818 -1.934256,1.29523 -1.161051,0.69353 -2.329875,1.39623 -2.597294,1.56153 -0.26742,0.16531 -0.522415,0.30044 -0.566781,0.30044 -0.04437,0 -0.517095,-0.43911 -1.050551,-0.97595 l -0.970026,-0.97618 0.370953,-0.0317 c 0.204024,-0.0175 0.483728,-0.0569 0.62143,-0.0877 0.238143,-0.0531 0.24156,-0.0655 0.06955,-0.25536 -0.09946,-0.10979 -0.245249,-0.17492 -0.323964,-0.14475 -0.09451,0.0362 -0.137476,-0.0202 -0.12648,-0.16603 0.0092,-0.12144 0.05017,-0.22084 0.09129,-0.22084 0.04112,0 0.150777,-0.0292 0.243645,-0.0647 0.116349,-0.0445 0.151073,-0.0183 0.111576,0.0846 -0.03152,0.0821 0.06762,0.26603 0.220461,0.4088 l 0.278008,0.25949 -0.03602,-0.42347 c -0.03092,-0.3644 -0.0064,-0.42347 0.175333,-0.42347 0.18141,0 0.206473,0.0597 0.177403,0.42347 l -0.03374,0.42347 0.290635,-0.28493 c 0.247165,-0.24237 0.269798,-0.31027 0.151528,-0.45262 -0.187669,-0.22588 -0.04431,-0.34488 0.218184,-0.18114 0.116305,0.0725 0.251315,0.10736 0.29995,0.0773 0.04864,-0.03 0.08839,0.0665 0.08839,0.21443 0,0.17516 -0.04738,0.25079 -0.135795,0.2169 -0.07468,-0.0286 -0.22372,0.0473 -0.331209,0.16873 -0.194395,0.21958 -0.19351,0.2205 0.162292,0.15177 0.196738,-0.0381 0.423285,-0.0692 0.503437,-0.0692 0.08015,0 0.145732,-0.0953 0.145732,-0.21174 0,-0.11645 0.04769,-0.21173 0.105987,-0.21173 0.05829,0 0.105986,-0.16673 0.105986,-0.37053 0,-0.2038 0.04769,-0.37054 0.105987,-0.37054 0.05829,0 0.105987,0.16674 0.105987,0.37054 0,0.2038 0.04769,0.37053 0.105986,0.37053 0.05829,0 0.105987,0.0748 0.105987,0.16604 0,0.10842 0.06429,0.14679 0.185476,0.11083 0.102013,-0.0303 0.316636,-0.081 0.47694,-0.1129 0.160305,-0.0319 0.410699,-0.0827 0.55643,-0.1129 0.145732,-0.0302 0.264967,-0.0993 0.264967,-0.15342 0,-0.16991 -0.68236,-0.74743 -0.821397,-0.69517 -0.07287,0.0274 -0.132483,0.009 -0.132483,-0.0413 0,-0.20862 0.361911,-0.21544 0.579822,-0.011 0.307804,0.28885 0.395862,0.2704 0.35522,-0.0744 -0.02334,-0.19804 0.01884,-0.2995 0.133726,-0.32195 0.131155,-0.0257 0.157254,0.0374 0.12027,0.28907 -0.05569,0.37898 0.106409,0.42249 0.338867,0.091 0.117118,-0.16702 0.130607,-0.26863 0.04885,-0.36703 -0.08829,-0.10626 -0.0441,-0.13106 0.201622,-0.1131 0.247988,0.0181 0.314753,0.0731 0.314856,0.2593 7.1e-5,0.12994 -0.03881,0.21232 -0.08632,0.18298 -0.113919,-0.0703 -0.841062,0.57036 -0.841062,0.74108 0,0.10548 0.114073,0.10681 0.55643,0.007 0.600908,-0.13608 0.557709,-0.0607 0.594519,-1.03468 0.0095,-0.25087 0.0661,-0.38239 0.120477,-0.38873 z m -5.113442,0.12344 c 0.197884,-0.0649 0.165037,0.46832 -0.03354,0.54442 -0.129236,0.0496 -0.15855,0.001 -0.132483,-0.21855 0.01841,-0.15528 0.09315,-0.30197 0.166018,-0.32587 z m -2.203157,0.18589 c 0.05275,0 0.110934,0.13068 0.129379,0.2903 0.0202,0.17479 0.107116,0.30413 0.218597,0.32525 0.131267,0.0249 0.166663,-0.0133 0.121305,-0.1313 -0.04181,-0.10885 -0.0052,-0.16665 0.106194,-0.16665 0.09367,0 0.170365,0.0683 0.170365,0.15177 0,0.17665 -0.366703,0.31963 -0.542146,0.21132 -0.08396,-0.0518 -0.106774,0.042 -0.07535,0.31077 0.04306,0.36838 -0.0071,0.46684 -0.159808,0.31429 -0.03886,-0.0387 -0.07059,-0.1777 -0.07059,-0.3087 0,-0.13101 -0.03971,-0.25415 -0.08818,-0.27356 -0.114166,-0.0457 0.06406,-0.72349 0.190237,-0.72349 z m 0.669248,1.20588 c 0.02778,-0.0278 0.07871,0.0231 0.113232,0.1129 0.07167,0.18655 0.01053,0.21936 -0.09398,0.0504 -0.03842,-0.0621 -0.04703,-0.1356 -0.01925,-0.16335 z m 38.07281,1.2332 c 0.113412,-8e-4 -0.07824,0.14576 -0.423949,0.32422 -0.140792,0.0727 -0.122998,0.0366 0.053,-0.10711 0.145727,-0.11907 0.312661,-0.21671 0.370953,-0.21711 z m -0.728658,0.48302 c 0.0055,0.005 0.004,0.0148 -0.006,0.0308 -0.07562,0.12221 -0.484184,0.36855 -0.484184,0.29196 0,-0.0245 0.125097,-0.12634 0.278006,-0.22641 0.114682,-0.0751 0.195627,-0.11034 0.212183,-0.0964 z m -39.300972,0.068 c 0.02185,-0.002 0.04863,0.003 0.08135,0.0159 0.09221,0.0354 0.235289,0.0641 0.31796,0.0641 0.255732,0 0.166051,0.19816 -0.167674,0.37054 l -0.31796,0.16438 v -0.33166 c 0,-0.1942 0.02076,-0.27582 0.08632,-0.28328 z m -9.739387,0.82109 c 0.106628,0 0.856174,0.8394 0.856174,0.9588 0,0.0724 -0.523723,0.20574 -0.808149,0.20574 -0.105986,0 -0.145731,-0.1588 -0.145731,-0.58228 0,-0.32023 0.04396,-0.58226 0.09771,-0.58226 z m 16.427311,0.74645 c -0.06955,0.37516 -0.04807,0.50937 0.06603,0.41478 0.08694,-0.072 0.27443,-0.0425 0.591413,0.0931 0.47531,0.2032 0.496024,0.1972 0.731557,-0.21236 0.07542,-0.13116 0.06173,-0.16992 -0.05362,-0.15301 -0.08498,0.0125 -0.191614,0.0632 -0.237021,0.1131 -0.04542,0.0498 -0.01565,0.0517 0.06624,0.004 0.102412,-0.0593 0.124391,-0.0464 0.07017,0.0411 -0.05466,0.0883 -0.118924,0.0943 -0.209696,0.019 -0.08964,-0.0743 -0.16645,-0.0732 -0.243646,0.004 -0.07961,0.0795 -0.136512,0.074 -0.193963,-0.0188 -0.05214,-0.0843 -0.03791,-0.1046 0.03975,-0.0566 0.07808,0.0482 0.09899,0.017 0.05879,-0.0877 -0.04538,-0.11813 -0.112872,-0.13528 -0.247579,-0.0632 -0.122398,0.0654 -0.226393,0.0575 -0.307196,-0.0232 -0.06722,-0.0671 -0.126383,-0.10065 -0.131241,-0.0744 z m 25.412371,1.60744 c 0.01863,-0.01 0.03,-7.9e-4 0.03,0.0282 0,0.0582 -0.04617,0.17733 -0.102672,0.26467 -0.05651,0.0873 -0.102677,0.11116 -0.102677,0.0529 0,-0.0582 0.04617,-0.17733 0.102677,-0.26467 0.02824,-0.0437 0.05403,-0.0714 0.07266,-0.081 z m 3.582639,1.29584 c 0.01779,0.007 0.01919,0.0269 8.01e-4,0.0568 -0.06224,0.10059 -0.264346,0.14881 -0.264346,0.063 0,-0.0229 0.0741,-0.0699 0.16457,-0.10464 0.04716,-0.0181 0.08137,-0.0228 0.09915,-0.0153 z m -0.423946,0.21174 c 0.01779,0.007 0.01919,0.0269 8.02e-4,0.0568 -0.06224,0.10059 -0.264347,0.14881 -0.264347,0.063 0,-0.0229 0.0741,-0.0699 0.16457,-0.10463 0.04716,-0.0181 0.08137,-0.0228 0.09916,-0.0153 z m -42.493405,0.47909 c 0.1124,0 0.68291,0.68322 0.68291,0.8178 0,0.0839 -0.140644,0.13501 -0.370953,0.13501 -0.368991,0 -0.370953,-0.002 -0.370953,-0.47641 0,-0.26202 0.02656,-0.4764 0.059,-0.4764 z m 49.312362,0.58144 c -0.06738,-0.0673 -2.713201,0.82928 -4.750977,1.60994 -1.812654,0.69441 -3.836802,1.63558 -4.690117,2.18082 -0.544636,0.34801 -0.609213,0.42709 -0.609213,0.74728 0,0.33157 -0.03337,0.36716 -0.450444,0.48013 -2.208571,0.59819 -5.383091,0.55503 -7.838251,-0.1067 l -0.826159,-0.22224 v -0.49543 c 0,-0.63749 -0.2686,-1.68286 -0.519584,-2.02224 -0.248599,-0.33615 -0.458511,-0.32753 -2.044381,0.0831 -1.730612,0.44812 -2.950644,0.59775 -4.8551,0.5955 -1.965537,-0.002 -3.047404,-0.13881 -5.068316,-0.63934 -1.421497,-0.35206 -1.530298,-0.3647 -1.712555,-0.19995 -0.275905,0.24941 -0.598531,1.05022 -0.747081,1.85455 -0.206355,1.1173 -0.211857,1.12426 -1.023641,1.30762 -2.289962,0.51725 -5.209804,0.50925 -7.330468,-0.0201 -0.661245,-0.16505 -0.706835,-0.1957 -0.736317,-0.49605 -0.02402,-0.24475 -0.136387,-0.38638 -0.47694,-0.60109 -1.059843,-0.66821 -3.057388,-1.59074 -5.108888,-2.35948 -1.607151,-0.60223 -3.986584,-1.43045 -4.109881,-1.43045 -0.0602,0 0.178318,0.18571 0.529933,0.41272 0.963457,0.62201 2.23161,1.97596 2.034447,2.17194 -0.02437,0.0243 -0.83125,-0.0657 -1.793079,-0.19975 -0.961828,-0.13406 -2.011097,-0.27074 -2.331706,-0.30375 -0.944661,-0.0973 -0.889729,-0.0729 4.7694,2.1097 2.003434,0.77269 3.60567,1.53201 4.313574,2.04435 0.424115,0.30696 0.446557,0.35096 0.47694,0.9338 l 0.03188,0.61163 0.688913,0.24564 c 1.27721,0.45531 2.767364,0.77398 4.012796,0.85831 0.678416,0.046 1.281237,0.0901 1.33953,0.098 0.05829,0.008 0.654469,-0.0334 1.324834,-0.0918 1.286076,-0.11216 3.191017,-0.57799 4.025422,-0.98422 0.51819,-0.2523 0.609905,-0.43555 0.627433,-1.25326 l 0.01056,-0.49294 0.927383,0.25805 c 3.679383,1.02357 7.497267,0.97947 10.74543,-0.12407 0.824845,-0.28023 1.09661,-0.32197 0.991554,-0.15218 -0.105729,0.17088 0.06518,1.26459 0.222117,1.42135 0.226079,0.22583 1.80417,0.7576 3.014205,1.01567 1.632453,0.34815 4.020416,0.32857 5.749569,-0.047 1.311185,-0.28474 2.813438,-0.74709 2.989982,-0.92034 0.05732,-0.0562 0.09752,-0.39007 0.08943,-0.74169 -0.01402,-0.6089 0.0012,-0.64933 0.319823,-0.85005 0.843648,-0.53163 3.47598,-1.72652 5.2097,-2.36484 2.351927,-0.86595 3.943156,-1.49744 4.292462,-1.7034 0.255441,-0.15062 0.24783,-0.15421 -0.211975,-0.1005 -0.262315,0.0307 -1.319625,0.17453 -2.349715,0.31968 -1.030098,0.14515 -1.922806,0.26383 -1.983734,0.26383 -0.165327,0 0.266157,-0.67715 0.766749,-1.2032 0.43378,-0.45584 1.812022,-1.44349 2.014367,-1.44349 0.05716,0 0.07973,-0.0242 0.0501,-0.0537 z m -28.692782,3.75913 c 0.05213,0 0.09481,0.45258 0.09481,1.00573 0,0.82341 -0.02882,1.00575 -0.15898,1.00575 -0.08744,0 -0.164647,-0.0358 -0.171607,-0.0794 -0.007,-0.0437 -0.0026,-0.35333 0.0097,-0.68814 0.02079,-0.56473 -0.09103,-0.7793 -0.262069,-0.50287 -0.0878,0.14191 -0.264966,0.13481 -0.264966,-0.0106 0,-0.13551 0.613391,-0.73052 0.753085,-0.73052 z m 4.251885,0.0155 c 0.0763,-0.004 0.152,0.0289 0.272626,0.0966 0.468158,0.26277 0.558853,1.26487 0.155253,1.71414 -0.232004,0.25825 -0.732612,0.24013 -0.878323,-0.0319 -0.108801,-0.20307 -0.09036,-0.21507 0.284011,-0.18527 0.301236,0.024 0.40906,-0.0108 0.435747,-0.14019 0.02536,-0.12302 -0.04133,-0.17203 -0.234327,-0.17203 -0.387481,0 -0.588516,-0.21153 -0.588516,-0.61928 0,-0.26616 0.06945,-0.40061 0.277177,-0.53657 0.123058,-0.0805 0.200054,-0.12149 0.276352,-0.12551 z m -2.930778,0.0128 c 0.366012,0.0351 0.650055,0.3759 0.463485,0.72411 -0.08644,0.16135 -0.0876,0.25504 -0.0036,0.3387 0.0637,0.0636 0.115923,0.22195 0.115923,0.35171 0,0.55941 -0.804278,0.78928 -1.113275,0.31822 h -2.08e-4 c -0.116223,-0.17718 -0.13695,-0.32419 -0.071,-0.50286 0.05126,-0.13887 0.07167,-0.42695 0.04533,-0.64017 -0.03932,-0.3183 -0.0063,-0.40978 0.184441,-0.51176 0.125819,-0.0672 0.257023,-0.0896 0.379027,-0.0779 z m 1.514866,0.0186 c 0.350659,0.0125 0.625048,0.346 0.432433,0.7055 -0.08645,0.16135 -0.0876,0.25504 -0.0036,0.3387 0.154416,0.15423 0.147518,0.63444 -0.01138,0.79316 -0.06995,0.0699 -0.274914,0.12717 -0.455619,0.12717 -0.18071,0 -0.385875,-0.0572 -0.455824,-0.12717 -0.06995,-0.0699 -0.127308,-0.25078 -0.127308,-0.40216 0,-0.15139 0.05736,-0.33251 0.127308,-0.40238 0.09892,-0.0988 0.09892,-0.15531 0,-0.25412 -0.203959,-0.20373 -0.147706,-0.48987 0.132484,-0.67325 0.119385,-0.0781 0.24475,-0.10961 0.361639,-0.10545 z m -1.508656,0.27066 c -0.206101,0 -0.3145,0.17732 -0.234951,0.38439 0.08631,0.22465 0.320099,0.12471 0.361224,-0.15446 0.02201,-0.14943 -0.02222,-0.22993 -0.126273,-0.22993 z m 1.479674,0 c -0.199272,0 -0.310077,0.17779 -0.234123,0.3755 0.06754,0.17579 0.161874,0.19035 0.372607,0.057 0.180133,-0.11393 0.07809,-0.43256 -0.138484,-0.43256 z m 1.45897,0.036 c -0.04806,-0.0149 -0.09631,-0.0123 -0.138901,0.0141 -0.124708,0.077 -0.150077,0.51054 -0.03641,0.62404 0.139029,0.13887 0.402578,0.0127 0.4343,-0.20802 0.02656,-0.18469 -0.114794,-0.38559 -0.258967,-0.43008 z m -2.993086,0.81095 c -0.247516,0 -0.33717,0.19554 -0.206178,0.44995 0.116707,0.22665 0.233055,0.23453 0.404902,0.0277 0.172798,-0.20798 0.06057,-0.47765 -0.198724,-0.47765 z m 1.524594,0 c -0.209539,0 -0.264967,0.0534 -0.264967,0.25579 0,0.14071 0.05962,0.2767 0.132483,0.30208 0.233638,0.0814 0.397451,-0.0441 0.397451,-0.30457 0,-0.19966 -0.05615,-0.2533 -0.264967,-0.2533 z m 11.005016,1.15793 c 0.358695,-0.0312 0.653514,0.36863 0.653514,1.01236 0,0.87043 -0.584794,1.3184 -1.050344,0.80456 -0.21421,-0.23644 -0.03946,-0.42292 0.205766,-0.2196 0.193183,0.16015 0.473625,0.0591 0.473625,-0.17058 0,-0.12042 -0.06358,-0.15774 -0.205141,-0.12076 -0.540257,0.14112 -0.887351,-0.72797 -0.448993,-1.12423 0.125169,-0.11315 0.252008,-0.17134 0.371573,-0.18175 z m 3.1796,0.007 c 0.310894,0 0.592509,0.0274 0.625982,0.0608 0.03349,0.0335 -0.07767,0.32411 -0.247162,0.64596 -0.169485,0.32185 -0.30823,0.66648 -0.30823,0.76589 0,0.23437 -0.248211,0.57316 -0.347358,0.47413 -0.132624,-0.13248 -0.08262,-0.39406 0.184651,-0.9675 l 0.258962,-0.5558 h -0.365985 c -0.295424,0 -0.36619,-0.0409 -0.36619,-0.21173 0,-0.18527 0.07072,-0.21174 0.56533,-0.21174 z m -1.527077,0.0433 c 0.258101,-0.0501 0.510879,0.054 0.56823,0.27314 0.06134,0.23429 -0.1245,0.28837 -0.320031,0.0931 -0.166333,-0.16615 -0.452306,-0.0348 -0.452306,0.20781 0,0.15979 0.05701,0.18947 0.281527,0.1466 0.333626,-0.0637 0.566367,0.18943 0.566367,0.61619 0,0.53812 -0.637863,0.82793 -0.982241,0.44621 -0.401985,-0.44555 -0.353792,-1.39232 0.08549,-1.67983 0.08015,-0.0524 0.166925,-0.0865 0.252962,-0.10317 z m -2.801196,0.004 c 0.02656,0.002 0.04842,0.0114 0.06521,0.0282 0.137979,0.13782 0.07353,1.85547 -0.07141,1.90334 -0.06193,0.0205 -0.145399,0.004 -0.185477,-0.0356 -0.04008,-0.04 -0.07287,-0.35386 -0.07287,-0.69744 0,-0.57652 -0.01634,-0.61948 -0.211975,-0.55746 -0.322679,0.10231 -0.252749,-0.17033 0.119028,-0.46399 0.155581,-0.1229 0.277806,-0.18294 0.357498,-0.177 z m -22.264442,0.16459 c 0.685931,0 0.714603,0.0642 0.337625,0.75431 -0.139182,0.2548 -0.284591,0.64182 -0.322928,0.86018 -0.07688,0.43789 -0.378722,0.56505 -0.376956,0.15879 5.61e-4,-0.131 0.117725,-0.4883 0.260205,-0.794 0.14248,-0.3057 0.22548,-0.56041 0.184442,-0.56615 -0.04104,-0.006 -0.192964,-0.0176 -0.337626,-0.0265 -0.157625,-0.01 -0.277626,-0.0904 -0.299329,-0.20139 -0.03101,-0.15861 0.04886,-0.18527 0.554567,-0.18527 z m 1.481122,0 c 0.410289,0 0.593277,0.31596 0.593277,1.02414 0,0.4826 -0.0469,0.67946 -0.193757,0.81221 -0.269899,0.24397 -0.611742,0.21845 -0.807113,-0.0601 -0.0965,-0.13762 -0.164984,-0.45742 -0.164984,-0.77044 0,-0.62053 0.219352,-1.00574 0.572577,-1.00574 z m -2.992674,0.005 c 0.164613,0.006 0.326843,0.0581 0.405523,0.1528 0.08207,0.0988 0.105289,0.29333 0.06252,0.52107 -0.03965,0.21112 -0.02247,0.39175 0.04099,0.43093 0.17565,0.10842 0.125953,0.53638 -0.08446,0.72659 -0.260613,0.23558 -0.608371,0.22086 -0.866109,-0.0367 -0.253778,-0.2535 -0.264851,-0.40657 -0.05175,-0.71047 0.101351,-0.14454 0.120801,-0.25259 0.05299,-0.29445 -0.147441,-0.091 -0.134743,-0.51303 0.02008,-0.66767 0.0886,-0.0885 0.255608,-0.12831 0.420221,-0.12221 z m -1.338496,0.002 c 0.13852,0.008 0.153602,0.29146 0.132484,0.96418 -0.02675,0.85198 -0.124679,1.17602 -0.302021,0.99893 -0.0255,-0.0255 -0.0445,-0.33621 -0.04223,-0.69043 0.0023,-0.35422 -0.01285,-0.6441 -0.03354,-0.6441 -0.02068,0 -0.129857,0.0494 -0.24261,0.1096 -0.324203,0.17331 -0.261475,-0.17583 0.08653,-0.48178 0.190685,-0.16765 0.318271,-0.26147 0.401383,-0.2564 z m 26.282207,0.15218 c -0.220375,0 -0.329357,0.26587 -0.222738,0.5434 0.110752,0.2883 0.433262,0.11914 0.433262,-0.22725 0,-0.24484 -0.04748,-0.31615 -0.210524,-0.31615 z m -24.961306,0.1588 c -0.141316,0 -0.211974,0.0706 -0.211974,0.21174 0,0.14115 0.07066,0.21173 0.211974,0.21173 0.141314,0 0.211973,-0.0706 0.211973,-0.21173 0,-0.14116 -0.07066,-0.21174 -0.211973,-0.21174 z m 3.056845,0.0215 c -0.219371,-0.0415 -0.351005,0.47378 -0.253581,0.99252 0.07861,0.41857 0.340893,0.48731 0.434711,0.11393 0.112246,-0.44673 0.01016,-1.07027 -0.18113,-1.10645 z m 23.632128,0.41354 c -0.09541,-0.0264 -0.203026,0.047 -0.251512,0.24008 -0.08171,0.3252 0.02035,0.51237 0.254617,0.4673 0.116504,-0.0224 0.175538,-0.13961 0.175538,-0.34841 0,-0.20637 -0.08323,-0.33259 -0.178643,-0.35897 z m -26.645295,0.3476 c -0.04922,-0.0191 -0.09829,-0.0203 -0.139522,0.005 -0.06389,0.0395 -0.11613,0.18808 -0.11613,0.33022 0,0.18916 0.05768,0.25825 0.215286,0.25825 0.118414,0 0.244169,-0.075 0.279457,-0.16686 0.0576,-0.14994 -0.09142,-0.3694 -0.239091,-0.42678 z" /></g></svg>
